<svg width="25" height="25" viewBox="0 0 25 25" fill="none" xmlns="http://www.w3.org/2000/svg">
<path fill-rule="evenodd" clip-rule="evenodd" d="M9.53877 21.6368V18.4423C9.53875 17.6298 10.2012 16.9695 11.0219 16.9641H14.0282C14.8529 16.9641 15.5214 17.6259 15.5214 18.4423V21.6467C15.5212 22.3366 16.0774 22.9004 16.774 22.9166H18.7782C20.7762 22.9166 22.3958 21.3131 22.3958 19.3352V10.2477C22.3852 9.46953 22.0161 8.73882 21.3937 8.26349L14.5393 2.79711C13.3385 1.8453 11.6315 1.8453 10.4306 2.79711L3.60628 8.27342C2.98152 8.74682 2.61187 9.47874 2.60417 10.2576V19.3352C2.60417 21.3131 4.22383 22.9166 6.22179 22.9166H8.22601C8.93996 22.9166 9.51873 22.3436 9.51873 21.6368" fill="#1E1E1E" fill-opacity="0.2"/>
</svg>
