<svg width="29" height="32" viewBox="0 0 29 32" fill="none" xmlns="http://www.w3.org/2000/svg">
<path fill-rule="evenodd" clip-rule="evenodd" d="M14.5437 2.61804H14.4575C10.3864 2.61804 6.65376 5.81804 6.29163 10.0546C6.26748 10.3576 6.25101 10.6673 6.24038 11.0009L6.2255 11.7809L6.22256 12.4802L6.24074 12.4005C6.07273 13.288 5.68553 14.1112 5.11917 14.7839L5.038 14.897C4.55306 15.695 4.27443 16.6188 4.2313 17.5726L4.23028 17.8845C4.20552 19.139 4.60234 20.3804 5.34886 21.3664C6.36122 22.5243 7.67168 23.2151 9.07818 23.3616C12.6754 23.7849 16.3149 23.7849 19.9222 23.3605C21.3191 23.2213 22.6335 22.5285 23.6034 21.4133C24.3357 20.4641 24.7354 19.3251 24.7697 18.1458L24.7709 17.6178C24.7308 16.622 24.4504 15.6974 23.9596 14.9028L23.8851 14.7991L23.703 14.5671C23.2938 14.0135 22.995 13.3757 22.8249 12.6935L22.7711 12.4485L22.7599 12.1917C22.7566 12.0761 22.7549 11.948 22.7544 11.788L22.7543 10.9069C22.7515 10.5698 22.7422 10.3302 22.7208 10.0603C22.3463 5.81581 18.6125 2.61804 14.5437 2.61804ZM14.4575 4.44459H14.5437C17.8031 4.44459 20.7766 6.99118 21.0622 10.2278C21.0791 10.4402 21.0866 10.643 21.0888 10.9441L21.0921 12.1283C21.0957 12.3177 21.1026 12.4752 21.1144 12.6524L21.1299 12.7737L21.2083 13.1347C21.4407 14.0897 21.858 14.9806 22.4324 15.7487L22.599 15.9604L22.5806 15.9272C22.8992 16.443 23.0807 17.0416 23.1061 17.659L23.1052 17.8729C23.1245 18.7317 22.8616 19.5477 22.3643 20.1939C21.7072 20.947 20.7677 21.4422 19.7579 21.543C16.2554 21.9549 12.735 21.9549 9.2458 21.5444C8.22493 21.4379 7.28484 20.9424 6.5899 20.1499C6.1394 19.5511 5.87939 18.7377 5.89571 17.9041L5.8959 17.6178L5.91701 17.3685C5.96785 16.9512 6.09653 16.5284 6.29598 16.1391L6.39712 15.9578C7.1386 15.0543 7.64747 13.9557 7.87159 12.7717L7.88898 12.5861L7.89686 11.3828L7.91627 10.7722C7.92507 10.5796 7.93633 10.3966 7.95046 10.2193C8.2264 6.99133 11.1971 4.44459 14.4575 4.44459ZM6.39712 15.9578C6.37919 15.9796 6.36112 16.0013 6.34292 16.023L6.40245 15.9482L6.39712 15.9578ZM17.6513 25.7755C17.2929 25.4594 16.7687 25.5217 16.4804 25.9147C16.3554 26.085 16.2108 26.2378 16.0498 26.3694C15.5038 26.8332 14.8225 27.0398 14.1452 26.9524C13.4689 26.8651 12.8542 26.4922 12.437 25.918C12.1504 25.5236 11.6265 25.4585 11.2667 25.7728C10.907 26.0871 10.8477 26.6617 11.1343 27.0562C11.826 28.0082 12.8395 28.6231 13.9506 28.7664C15.0607 28.9097 16.1785 28.5708 17.0577 27.8234C17.3187 27.6103 17.565 27.3501 17.7782 27.0596C18.0665 26.6666 18.0097 26.0917 17.6513 25.7755Z" fill="white"/>
</svg>
