<svg width="24" height="25" viewBox="0 0 24 25" fill="none" xmlns="http://www.w3.org/2000/svg">
<path fill-rule="evenodd" clip-rule="evenodd" d="M16.4109 2.80869L16.4119 3.56918C19.1665 3.7882 20.9862 5.69246 20.9891 8.61274L21 17.1606C21.0039 20.3445 19.0322 22.3036 15.8718 22.3086L8.15188 22.3188C5.01119 22.3228 3.01482 20.3172 3.01087 17.1241L3.00001 8.67662C2.99606 5.73708 4.75153 3.83788 7.50617 3.58134L7.50518 2.82086C7.5042 2.3747 7.83001 2.03907 8.26444 2.03907C8.69886 2.03806 9.02468 2.37267 9.02567 2.81883L9.02666 3.52862L14.8914 3.5205L14.8904 2.81072C14.8894 2.36456 15.2152 2.02995 15.6497 2.02893C16.0742 2.02792 16.4099 2.36253 16.4109 2.80869ZM4.52148 8.98994L19.4696 8.96966V8.61476C19.4272 6.4347 18.349 5.29092 16.4138 5.12057L16.4148 5.90134C16.4148 6.33735 16.0801 6.68312 15.6556 6.68312C15.2212 6.68414 14.8943 6.33938 14.8943 5.90337L14.8934 5.08204L9.02863 5.09015L9.02962 5.91047C9.02962 6.34749 8.70479 6.69225 8.27036 6.69225C7.83594 6.69326 7.50913 6.34952 7.50913 5.9125L7.50815 5.13173C5.58286 5.32743 4.51753 6.47526 4.52049 8.67459L4.52148 8.98994ZM15.2399 13.5985V13.6097C15.2498 14.0761 15.625 14.43 16.0801 14.4198C16.5244 14.4087 16.8789 14.0223 16.869 13.5559C16.8483 13.1098 16.4918 12.7457 16.0485 12.7468C15.5944 12.7569 15.2389 13.1321 15.2399 13.5985ZM16.0554 18.1513C15.6013 18.1412 15.235 17.7569 15.234 17.2904C15.2241 16.824 15.5884 16.4377 16.0426 16.4265H16.0525C16.5165 16.4265 16.8927 16.8108 16.8927 17.2874C16.8937 17.764 16.5185 18.1503 16.0554 18.1513ZM11.1721 13.6147C11.1919 14.0812 11.568 14.4452 12.0222 14.4249C12.4665 14.4036 12.821 14.0183 12.8012 13.5519C12.7903 13.0956 12.425 12.7407 11.9807 12.7417C11.5266 12.762 11.1711 13.1483 11.1721 13.6147ZM12.0262 18.1057C11.572 18.1259 11.1968 17.7619 11.1761 17.2955C11.1761 16.8291 11.5305 16.4437 11.9847 16.4224C12.429 16.4214 12.7953 16.7763 12.8052 17.2316C12.8259 17.6991 12.4705 18.0844 12.0262 18.1057ZM7.10433 13.6502C7.12408 14.1166 7.50025 14.4817 7.95442 14.4604C8.39872 14.4401 8.75317 14.0538 8.73243 13.5873C8.72256 13.1311 8.35725 12.7762 7.91196 12.7772C7.45779 12.7975 7.10334 13.1838 7.10433 13.6502ZM7.95837 18.1107C7.5042 18.132 7.12901 17.767 7.10828 17.3006C7.10729 16.8341 7.46273 16.4478 7.9169 16.4275C8.3612 16.4265 8.7275 16.7814 8.73737 17.2377C8.7581 17.7041 8.40365 18.0905 7.95837 18.1107Z" fill="black" fill-opacity="0.8"/>
</svg>
