<svg width="19" height="19" viewBox="0 0 19 19" fill="none" xmlns="http://www.w3.org/2000/svg">
<path fill-rule="evenodd" clip-rule="evenodd" d="M2.77083 8.16827C2.77083 4.5267 5.8139 1.58337 9.49481 1.58337C13.1861 1.58337 16.2292 4.5267 16.2292 8.16827C16.2292 10.0033 15.5618 11.7069 14.4633 13.1509C13.2515 14.7437 11.758 16.1314 10.0768 17.2207C9.69198 17.4725 9.34473 17.4915 8.92243 17.2207C7.23166 16.1314 5.73806 14.7437 4.53664 13.1509C3.4374 11.7069 2.77083 10.0033 2.77083 8.16827ZM7.27876 8.3733C7.27876 9.59322 8.27422 10.5527 9.49481 10.5527C10.7162 10.5527 11.7212 9.59322 11.7212 8.3733C11.7212 7.16288 10.7162 6.1567 9.49481 6.1567C8.27422 6.1567 7.27876 7.16288 7.27876 8.3733Z" fill="black" fill-opacity="0.8"/>
</svg>
