<svg width="25" height="25" viewBox="0 0 25 25" fill="none" xmlns="http://www.w3.org/2000/svg">
<path fill-rule="evenodd" clip-rule="evenodd" d="M9.53879 21.6369V18.4423C9.53877 17.6298 10.2012 16.9696 11.0219 16.9641H14.0282C14.8529 16.9641 15.5214 17.626 15.5214 18.4423V21.6468C15.5212 22.3366 16.0774 22.9005 16.774 22.9166H18.7782C20.7762 22.9166 22.3959 21.3132 22.3959 19.3352V10.2477C22.3852 9.46959 22.0161 8.73889 21.3937 8.26356L14.5393 2.79717C13.3385 1.84536 11.6315 1.84536 10.4307 2.79717L3.6063 8.27348C2.98154 8.74688 2.61188 9.4788 2.60419 10.2576V19.3352C2.60419 21.3132 4.22385 22.9166 6.2218 22.9166H8.22602C8.93997 22.9166 9.51874 22.3437 9.51874 21.6369" fill="#CED2D9" fill-opacity="0.9"/>
</svg>
