<svg width="20" height="20" viewBox="0 0 20 20" fill="none" xmlns="http://www.w3.org/2000/svg">
<path d="M17.7339 15.3533C17.444 16.023 17.1009 16.6393 16.7034 17.206C16.1616 17.9786 15.7179 18.5134 15.376 18.8103C14.846 19.2978 14.2781 19.5474 13.67 19.5616C13.2334 19.5616 12.7069 19.4374 12.0941 19.1854C11.4792 18.9345 10.9142 18.8103 10.3975 18.8103C9.85569 18.8103 9.27456 18.9345 8.65296 19.1854C8.03042 19.4374 7.52891 19.5687 7.14547 19.5817C6.56232 19.6065 5.98107 19.3498 5.40088 18.8103C5.03057 18.4873 4.56739 17.9336 4.01252 17.1493C3.41719 16.3116 2.92774 15.3403 2.5443 14.2329C2.13365 13.0368 1.9278 11.8786 1.9278 10.7573C1.9278 9.47278 2.20535 8.36493 2.76128 7.43656C3.1982 6.69086 3.77945 6.10262 4.50693 5.6708C5.23442 5.23897 6.02046 5.01891 6.86697 5.00483C7.33015 5.00483 7.93755 5.14811 8.69236 5.42968C9.44504 5.7122 9.92833 5.85548 10.1402 5.85548C10.2986 5.85548 10.8355 5.68795 11.7457 5.35396C12.6064 5.04423 13.3328 4.91598 13.9279 4.9665C15.5404 5.09664 16.7519 5.73232 17.5576 6.87755C16.1154 7.75138 15.402 8.97529 15.4162 10.5454C15.4292 11.7683 15.8729 12.786 16.7448 13.5941C17.14 13.9691 17.5813 14.259 18.0723 14.4648C17.9658 14.7736 17.8534 15.0694 17.7339 15.3533ZM14.0356 0.800129C14.0356 1.75868 13.6854 2.65368 12.9873 3.48208C12.145 4.46688 11.1261 5.03595 10.0212 4.94615C10.0071 4.83116 9.99896 4.71013 9.99896 4.58294C9.99896 3.66274 10.3996 2.67793 11.111 1.87272C11.4661 1.46503 11.9178 1.12604 12.4656 0.855616C13.0122 0.589231 13.5292 0.441914 14.0154 0.416687C14.0296 0.54483 14.0356 0.672982 14.0356 0.800117V0.800129Z" fill="black"/>
</svg>
