<svg width="21" height="21" viewBox="0 0 21 21" fill="none" xmlns="http://www.w3.org/2000/svg">
<path d="M8.54052 12.571C8.03739 12.0687 7.73114 11.3862 7.73114 10.6206C7.73114 9.08672 8.96664 7.85034 10.4996 7.85034C11.2583 7.85034 11.9565 8.15747 12.4509 8.65972" stroke="#BDBDBD" stroke-width="1.5" stroke-linecap="round" stroke-linejoin="round"/>
<path d="M13.2167 11.1116C13.0137 12.2403 12.1247 13.1311 10.9968 13.3358" stroke="#BDBDBD" stroke-width="1.5" stroke-linecap="round" stroke-linejoin="round"/>
<path d="M5.82276 15.2882C4.43413 14.198 3.25813 12.6055 2.40588 10.6201C3.26688 8.62598 4.45076 7.02473 5.84813 5.92573C7.23676 4.82673 8.83888 4.22998 10.4996 4.22998C12.17 4.22998 13.7713 4.83548 15.1686 5.94236" stroke="#BDBDBD" stroke-width="1.5" stroke-linecap="round" stroke-linejoin="round"/>
<path d="M17.0166 7.86694C17.6186 8.66669 18.148 9.58982 18.5934 10.6197C16.8722 14.6071 13.8307 17.0089 10.4996 17.0089C9.74449 17.0089 8.99987 16.8864 8.28412 16.6476" stroke="#BDBDBD" stroke-width="1.5" stroke-linecap="round" stroke-linejoin="round"/>
<path d="M17.4011 3.71838L3.59888 17.5206" stroke="#BDBDBD" stroke-width="1.5" stroke-linecap="round" stroke-linejoin="round"/>
</svg>
