<svg width="28" height="28" viewBox="0 0 28 28" fill="none" xmlns="http://www.w3.org/2000/svg">
<path d="M10.3542 10.5C10.4514 10.5584 10.5632 10.573 10.6896 10.5438C10.816 10.5146 10.9083 10.4514 10.9667 10.3542L13.3292 6.44587L11.6083 3.58754C11.375 3.19865 11.0396 3.00421 10.6021 3.00421C10.1646 3.00421 9.82917 3.19865 9.59583 3.58754L6.97083 7.96254C6.9125 8.05976 6.89792 8.17157 6.92708 8.29796C6.95625 8.42435 7.01944 8.51671 7.11667 8.57504L10.3542 10.5ZM22.0208 18.6667L19.6583 14.7292C19.6 14.632 19.5854 14.5202 19.6146 14.3938C19.6438 14.2674 19.7069 14.175 19.8042 14.1167L23.1 12.2209C23.1972 12.1625 23.309 12.1528 23.4354 12.1917C23.5618 12.2306 23.6542 12.2987 23.7125 12.3959L25.3458 15.1375C25.5597 15.4681 25.6715 15.8424 25.6813 16.2605C25.691 16.6785 25.6083 17.0528 25.4333 17.3834C25.2389 17.7723 24.9521 18.0834 24.5729 18.3167C24.1938 18.55 23.7806 18.6667 23.3333 18.6667H22.0208ZM17.9083 26.075L14.3208 22.4875C14.2236 22.3903 14.175 22.2834 14.175 22.1667C14.175 22.05 14.2236 21.9431 14.3208 21.8459L17.9083 18.2584C18.0444 18.1223 18.2049 18.0882 18.3896 18.1563C18.5743 18.2243 18.6667 18.3556 18.6667 18.55V19.8334H24.2083L22.5167 23.2167C22.3028 23.6056 22.0111 23.9167 21.6417 24.15C21.2722 24.3834 20.8639 24.5 20.4167 24.5H18.6667V25.7834C18.6667 25.9778 18.5743 26.1091 18.3896 26.1771C18.2049 26.2452 18.0444 26.2112 17.9083 26.075ZM7.37917 24.5C6.99028 24.5 6.63542 24.398 6.31458 24.1938C5.99375 23.9896 5.75556 23.7223 5.6 23.3917C5.44444 23.0806 5.37153 22.7549 5.38125 22.4146C5.39097 22.0743 5.48333 21.7584 5.65833 21.4667L6.65 19.8334H11.2292C11.3458 19.8334 11.4479 19.8771 11.5354 19.9646C11.6229 20.0521 11.6667 20.1542 11.6667 20.2709V24.0625C11.6667 24.1792 11.6229 24.2813 11.5354 24.3688C11.4479 24.4563 11.3458 24.5 11.2292 24.5H7.37917ZM4.49167 21.175L2.59583 17.3834C2.42083 17.0334 2.33819 16.6591 2.34792 16.2605C2.35764 15.8618 2.46944 15.4875 2.68333 15.1375L3.15 14.35L2.07083 13.7084C1.89583 13.6112 1.82292 13.4605 1.85208 13.2563C1.88125 13.0521 1.99306 12.9306 2.1875 12.8917L7.11667 11.6667C7.23333 11.6278 7.34514 11.6424 7.45208 11.7105C7.55903 11.7785 7.63194 11.8709 7.67083 11.9875L8.89583 16.9459C8.91528 17.0431 8.91042 17.1306 8.88125 17.2084C8.85208 17.2862 8.80347 17.3493 8.73542 17.398C8.66736 17.4466 8.58958 17.4757 8.50208 17.4855C8.41458 17.4952 8.33194 17.4709 8.25417 17.4125L7.14583 16.7417L4.49167 21.175ZM19.8042 11.0834L14.875 9.85837C14.6806 9.81948 14.5688 9.69796 14.5396 9.49379C14.5104 9.28962 14.5833 9.13893 14.7583 9.04171L15.8667 8.40004L12.2208 2.33337H16.3333C16.7417 2.33337 17.1257 2.43546 17.4854 2.63962C17.8451 2.84379 18.1319 3.12087 18.3458 3.47087L19.8625 6.00837L20.9417 5.33754C21.0194 5.27921 21.1021 5.2549 21.1896 5.26462C21.2771 5.27435 21.3549 5.30837 21.4229 5.36671C21.491 5.42504 21.5396 5.4931 21.5688 5.57087C21.5979 5.64865 21.6028 5.73615 21.5833 5.83337L20.3583 10.7625C20.3194 10.8792 20.2465 10.9716 20.1396 11.0396C20.0326 11.1077 19.9208 11.1223 19.8042 11.0834Z" fill="#13AC8A"/>
<circle cx="19.5833" cy="18.5833" r="7.58333" fill="white"/>
<path d="M19.4431 24.1434C19.2692 24.1434 19.1246 24.0849 19.0093 23.9679C18.894 23.8509 18.8363 23.706 18.8363 23.533V19.0571H14.3604C14.1874 19.0571 14.0425 18.9982 13.9255 18.8806C13.8085 18.7629 13.75 18.6171 13.75 18.4431C13.75 18.2692 13.8085 18.1246 13.9255 18.0093C14.0425 17.894 14.1874 17.8363 14.3604 17.8363H18.8363V13.3604C18.8363 13.1874 18.8952 13.0425 19.0128 12.9255C19.1305 12.8085 19.2763 12.75 19.4503 12.75C19.6242 12.75 19.7688 12.8085 19.8841 12.9255C19.9994 13.0425 20.0571 13.1874 20.0571 13.3604V17.8363H24.533C24.706 17.8363 24.8509 17.8952 24.9679 18.0128C25.0849 18.1305 25.1434 18.2763 25.1434 18.4503C25.1434 18.6242 25.0849 18.7688 24.9679 18.8841C24.8509 18.9994 24.706 19.0571 24.533 19.0571H20.0571V23.533C20.0571 23.706 19.9982 23.8509 19.8806 23.9679C19.7629 24.0849 19.6171 24.1434 19.4431 24.1434Z" fill="#13AC8A"/>
</svg>
