<svg width="28" height="28" viewBox="0 0 28 28" fill="none" xmlns="http://www.w3.org/2000/svg">
<path d="M10.3542 10.4999C10.4514 10.5583 10.5632 10.5728 10.6896 10.5437C10.816 10.5145 10.9083 10.4513 10.9667 10.3541L13.3292 6.44575L11.6083 3.58742C11.375 3.19853 11.0396 3.00409 10.6021 3.00409C10.1646 3.00409 9.82917 3.19853 9.59583 3.58742L6.97083 7.96242C6.9125 8.05964 6.89792 8.17145 6.92708 8.29783C6.95625 8.42422 7.01944 8.51658 7.11667 8.57492L10.3542 10.4999ZM22.0208 18.6666L19.6583 14.7291C19.6 14.6319 19.5854 14.5201 19.6146 14.3937C19.6438 14.2673 19.7069 14.1749 19.8042 14.1166L23.1 12.2208C23.1972 12.1624 23.309 12.1527 23.4354 12.1916C23.5618 12.2305 23.6542 12.2985 23.7125 12.3958L25.3458 15.1374C25.5597 15.468 25.6715 15.8423 25.6813 16.2603C25.691 16.6784 25.6083 17.0527 25.4333 17.3833C25.2389 17.7721 24.9521 18.0833 24.5729 18.3166C24.1938 18.5499 23.7806 18.6666 23.3333 18.6666H22.0208ZM17.9083 26.0749L14.3208 22.4874C14.2236 22.3902 14.175 22.2833 14.175 22.1666C14.175 22.0499 14.2236 21.943 14.3208 21.8458L17.9083 18.2583C18.0444 18.1221 18.2049 18.0881 18.3896 18.1562C18.5743 18.2242 18.6667 18.3555 18.6667 18.5499V19.8333H24.2083L22.5167 23.2166C22.3028 23.6055 22.0111 23.9166 21.6417 24.1499C21.2722 24.3833 20.8639 24.4999 20.4167 24.4999H18.6667V25.7833C18.6667 25.9777 18.5743 26.1089 18.3896 26.177C18.2049 26.2451 18.0444 26.211 17.9083 26.0749ZM7.37917 24.4999C6.99028 24.4999 6.63542 24.3978 6.31458 24.1937C5.99375 23.9895 5.75556 23.7221 5.6 23.3916C5.44444 23.0805 5.37153 22.7548 5.38125 22.4145C5.39097 22.0742 5.48333 21.7583 5.65833 21.4666L6.65 19.8333H11.2292C11.3458 19.8333 11.4479 19.877 11.5354 19.9645C11.6229 20.052 11.6667 20.1541 11.6667 20.2708V24.0624C11.6667 24.1791 11.6229 24.2812 11.5354 24.3687C11.4479 24.4562 11.3458 24.4999 11.2292 24.4999H7.37917ZM4.49167 21.1749L2.59583 17.3833C2.42083 17.0333 2.33819 16.6589 2.34792 16.2603C2.35764 15.8617 2.46944 15.4874 2.68333 15.1374L3.15 14.3499L2.07083 13.7083C1.89583 13.611 1.82292 13.4603 1.85208 13.2562C1.88125 13.052 1.99306 12.9305 2.1875 12.8916L7.11667 11.6666C7.23333 11.6277 7.34514 11.6423 7.45208 11.7103C7.55903 11.7784 7.63194 11.8708 7.67083 11.9874L8.89583 16.9458C8.91528 17.043 8.91042 17.1305 8.88125 17.2083C8.85208 17.286 8.80347 17.3492 8.73542 17.3978C8.66736 17.4464 8.58958 17.4756 8.50208 17.4853C8.41458 17.4951 8.33194 17.4708 8.25417 17.4124L7.14583 16.7416L4.49167 21.1749ZM19.8042 11.0833L14.875 9.85825C14.6806 9.81936 14.5688 9.69783 14.5396 9.49367C14.5104 9.2895 14.5833 9.13881 14.7583 9.04158L15.8667 8.39992L12.2208 2.33325H16.3333C16.7417 2.33325 17.1257 2.43534 17.4854 2.6395C17.8451 2.84367 18.1319 3.12075 18.3458 3.47075L19.8625 6.00825L20.9417 5.33742C21.0194 5.27909 21.1021 5.25478 21.1896 5.2645C21.2771 5.27422 21.3549 5.30825 21.4229 5.36659C21.491 5.42492 21.5396 5.49297 21.5688 5.57075C21.5979 5.64853 21.6028 5.73603 21.5833 5.83325L20.3583 10.7624C20.3194 10.8791 20.2465 10.9714 20.1396 11.0395C20.0326 11.1076 19.9208 11.1221 19.8042 11.0833Z" fill="#1E1E1E" fill-opacity="0.2"/>
<circle cx="19.5833" cy="18.5833" r="7.58333" fill="white"/>
<path d="M19.4431 24.1434C19.2692 24.1434 19.1246 24.0849 19.0093 23.9679C18.894 23.8509 18.8363 23.706 18.8363 23.533V19.0571H14.3604C14.1874 19.0571 14.0425 18.9982 13.9255 18.8806C13.8085 18.7629 13.75 18.6171 13.75 18.4431C13.75 18.2692 13.8085 18.1246 13.9255 18.0093C14.0425 17.894 14.1874 17.8363 14.3604 17.8363H18.8363V13.3604C18.8363 13.1874 18.8952 13.0425 19.0128 12.9255C19.1305 12.8085 19.2763 12.75 19.4503 12.75C19.6242 12.75 19.7688 12.8085 19.8841 12.9255C19.9994 13.0425 20.0571 13.1874 20.0571 13.3604V17.8363H24.533C24.706 17.8363 24.8509 17.8952 24.9679 18.0128C25.0849 18.1305 25.1434 18.2763 25.1434 18.4503C25.1434 18.6242 25.0849 18.7688 24.9679 18.8841C24.8509 18.9994 24.706 19.0571 24.533 19.0571H20.0571V23.533C20.0571 23.706 19.9982 23.8509 19.8806 23.9679C19.7629 24.0849 19.6171 24.1434 19.4431 24.1434Z" fill="#1E1E1E" fill-opacity="0.2"/>
</svg>
