<svg width="25" height="25" viewBox="0 0 25 25" fill="none" xmlns="http://www.w3.org/2000/svg">
<path fill-rule="evenodd" clip-rule="evenodd" d="M9.53879 21.6369V18.4424C9.53877 17.6299 10.2012 16.9697 11.0219 16.9642H14.0282C14.8529 16.9642 15.5214 17.626 15.5214 18.4424V21.6468C15.5212 22.3367 16.0774 22.9005 16.774 22.9167H18.7782C20.7762 22.9167 22.3959 21.3132 22.3959 19.3353V10.2478C22.3852 9.46965 22.0161 8.73895 21.3937 8.26362L14.5393 2.79723C13.3385 1.84542 11.6315 1.84542 10.4307 2.79723L3.6063 8.27354C2.98154 8.74694 2.61188 9.47886 2.60419 10.2577V19.3353C2.60419 21.3132 4.22385 22.9167 6.2218 22.9167H8.22602C8.93997 22.9167 9.51874 22.3437 9.51874 21.6369" fill="black" fill-opacity="0.25"/>
</svg>
