<svg width="23" height="23" viewBox="0 0 23 23" fill="none" xmlns="http://www.w3.org/2000/svg">
<path fill-rule="evenodd" clip-rule="evenodd" d="M3.35413 9.88781C3.35413 5.47961 7.03785 1.91663 11.4937 1.91663C15.9621 1.91663 19.6458 5.47961 19.6458 9.88781C19.6458 12.1092 18.8379 14.1714 17.5082 15.9194C16.0413 17.8475 14.2333 19.5274 12.1981 20.846C11.7324 21.1508 11.312 21.1738 10.8008 20.846C8.75408 19.5274 6.94604 17.8475 5.49169 15.9194C4.16103 14.1714 3.35413 12.1092 3.35413 9.88781ZM8.8111 10.136C8.8111 11.6128 10.0161 12.7742 11.4937 12.7742C12.9722 12.7742 14.1888 11.6128 14.1888 10.136C14.1888 8.67076 12.9722 7.45276 11.4937 7.45276C10.0161 7.45276 8.8111 8.67076 8.8111 10.136Z" fill="#13AC8A"/>
</svg>
